<?xml version="1.0" encoding="iso-8859-1"?>
<!-- Generator: Adobe Illustrator 19.0.0, SVG Export Plug-In . SVG Version: 6.00 Build 0)  -->
<svg xmlns="http://www.w3.org/2000/svg" xmlns:xlink="http://www.w3.org/1999/xlink" version="1.1" id="Layer_1" x="0px" y="0px" viewBox="0 0 512 512" style="enable-background:new 0 0 512 512;" xml:space="preserve" width="512" height="512">
<g>
	<path d="M437,0H75C33.645,0,0,33.645,0,75v362c0,41.355,33.645,75,75,75h362c41.355,0,75-33.645,75-75V75   C512,33.645,478.355,0,437,0z M482,437c0,24.813-20.187,45-45,45H75c-24.813,0-45-20.187-45-45V75c0-24.813,20.187-45,45-45h362   c24.813,0,45,20.187,45,45V437z"/>
	<path d="M120,210h272V60H120V210z M150,90h212v90H150V90z"/>
	<rect x="180" y="120" width="152" height="30"/>
</g>















</svg>
